<?xml version="1.0" encoding="UTF-8"?>
<svg version="1.1" xmlns="http://www.w3.org/2000/svg" width="397" height="397">
<path d="M0 0 C1.02738281 0.804375 2.05476563 1.60875 3.11328125 2.4375 C17.24057227 13.83375006 30.73430998 26.99531662 41 42 C41.66588135 42.96389648 41.66588135 42.96389648 42.34521484 43.94726562 C49.14733373 53.87962536 54.95784677 64.07391275 60 75 C60.53238281 76.13695313 61.06476563 77.27390625 61.61328125 78.4453125 C82.96609979 126.00637084 83.30121359 180.91963537 65.43481445 229.60742188 C59.53792028 244.86328396 51.73002335 259.82793282 42 273 C41.24460937 274.03769531 40.48921875 275.07539063 39.7109375 276.14453125 C34.07163753 283.75463963 27.87906848 290.76302123 21.33398438 297.60302734 C20.19641327 298.79431246 19.07321776 299.99929764 17.953125 301.20703125 C-17.12986456 338.01418483 -68.0419986 354.56244854 -117.53515625 357.1875 C-170.28927999 358.29957639 -220.89057167 337.24261963 -258.84375 301.08984375 C-272.3904932 287.93932611 -283.58792377 273.38676219 -293 257 C-293.35803711 256.37963867 -293.71607422 255.75927734 -294.08496094 255.12011719 C-307.03909598 232.43633692 -315.21094162 207.00706388 -318 181 C-318.10957031 180.01257813 -318.21914063 179.02515625 -318.33203125 178.0078125 C-323.10960137 126.91966264 -308.38592386 75.95149551 -276.8125 35.5 C-275.55569415 33.98822739 -274.28506218 32.48782814 -273 31 C-272.3296875 30.22011719 -271.659375 29.44023438 -270.96875 28.63671875 C-268.68916563 26.04740825 -266.3594649 23.51676256 -264 21 C-263.54028809 20.50628906 -263.08057617 20.01257812 -262.60693359 19.50390625 C-232.00873525 -13.09623333 -189.1353547 -33.41972664 -145 -39 C-144.25580811 -39.0942627 -143.51161621 -39.18852539 -142.74487305 -39.28564453 C-92.61670881 -44.97474083 -39.82120767 -31.24000061 0 0 Z " fill="#FEFEFE" transform="translate(319,40)"/>
<path d="M0 0 C0 62.04 0 124.08 0 188 C-13.86 188.33 -27.72 188.66 -42 189 C-41.855625 183.534375 -41.71125 178.06875 -41.5625 172.4375 C-41.51939697 170.74681396 -41.47629395 169.05612793 -41.43188477 167.31420898 C-41.21257395 159.14053733 -40.82309955 151.00861137 -40.23852539 142.85131836 C-39.77884097 135.42908526 -39.62651191 127.99568273 -39.4375 120.5625 C-39.3941518 118.94465416 -39.35053337 117.32681553 -39.30664062 115.70898438 C-39.20132599 111.80606538 -39.09961873 107.90306836 -39 104 C-46.21752058 105.2691074 -46.21752058 105.2691074 -52.375 109.0625 C-56.3574825 112.41401305 -59.95788525 113.74386937 -65.30078125 113.640625 C-75.80597595 111.14735158 -85.61613519 98.86338326 -93.17578125 91.61328125 C-96.43214756 88.49734099 -99.79686583 85.53241741 -103.22729492 82.60986328 C-107.1436841 79.05323606 -110.2008559 75.46945731 -110.75 70.0625 C-110.30944298 64.58700556 -106.92778515 61.52428876 -103 58 C-99.62794277 55.24181918 -96.2029216 52.56835445 -92.74609375 49.91796875 C-89.06319996 47.07917092 -85.51800104 44.10212421 -82 41.0625 C-81.42378906 40.56540527 -80.84757812 40.06831055 -80.25390625 39.55615234 C-77.91013419 37.5295481 -75.57142259 35.49717083 -73.23388672 33.46337891 C-50.2136405 13.45488999 -32.09690372 0 0 0 Z " fill="#010101" transform="translate(195,104)"/>
<path d="M0 0 C3.93913766 1.24175491 7.5867146 2.67208578 11.27319336 4.53100586 C12.27962387 5.03591049 13.28605438 5.54081512 14.32298279 6.0610199 C15.40104691 6.60678177 16.47911102 7.15254364 17.58984375 7.71484375 C18.725392 8.28521866 19.86094025 8.85559357 21.03089905 9.44325256 C24.05658711 10.96349008 27.08061626 12.48692327 30.10369873 14.0123291 C45.98477458 22.02448912 61.88934819 29.96137428 77.95629883 37.5949707 C84.46972576 40.69186767 90.92909569 43.89009623 97.375 47.125 C98.50292969 47.68703125 99.63085938 48.2490625 100.79296875 48.828125 C101.85902344 49.36179688 102.92507813 49.89546875 104.0234375 50.4453125 C104.96106934 50.91469238 105.89870117 51.38407227 106.86474609 51.86767578 C109 53 109 53 110 54 C110.1875 57.4375 110.1875 57.4375 110 61 C109.01 61.99 109.01 61.99 108 63 C107.39341553 62.69408936 106.78683105 62.38817871 106.16186523 62.07299805 C95.23915909 56.57118292 84.30481801 51.10712087 73.25 45.875 C62.30199315 40.68757077 51.4798549 35.2584612 40.65423584 29.82199097 C28.4250863 23.68307512 16.14655728 17.66919396 3.76708984 11.83764648 C2.50461181 11.2391991 1.24963676 10.62481838 0 10 C0 6.7 0 3.4 0 0 Z " fill="#FF399C" transform="translate(202,117)"/>
<path d="M0 0 C13.95366555 6.54837081 27.81494828 13.27651079 41.64916992 20.07324219 C45.03285389 21.7354367 48.41771482 23.39521488 51.80273438 25.0546875 C60.93592901 29.53611844 70.06635889 34.02202206 79.15966797 38.58398438 C80.32686874 39.16940002 81.49406952 39.75481567 82.69664001 40.35797119 C84.91037467 41.46996288 87.12314111 42.58388513 89.33473206 43.70013428 C95.15872036 46.62813152 101.01083071 49.42534358 107 52 C104.42420709 57.29407649 104.42420709 57.29407649 102 59 C97.37114261 58.57091159 93.51573037 56.44192913 89.4453125 54.3515625 C88.71630737 53.9835704 87.98730225 53.61557831 87.23620605 53.23643494 C85.67500065 52.44777807 84.1151214 51.65649147 82.55645752 50.86282349 C78.45018536 48.77237359 74.33406362 46.70148413 70.21875 44.62890625 C69.40773834 44.21988571 68.59672668 43.81086517 67.76113892 43.38945007 C61.75384192 40.3646732 55.71008407 37.42781505 49.625 34.5625 C32.93415127 26.68439384 16.49034582 18.28706584 0 10 C0 6.7 0 3.4 0 0 Z " fill="#FF389B" transform="translate(202,129)"/>
<path d="M0 0 C4.97133105 1.51390328 9.48645047 3.57279333 14.1328125 5.859375 C14.91413544 6.24035339 15.69545837 6.62133179 16.50045776 7.01385498 C19.04384124 8.25545336 21.5844629 9.50258914 24.125 10.75 C25.89183087 11.61412903 27.65875878 12.47805969 29.42578125 13.34179688 C40.76668538 18.89194893 52.07399606 24.50667114 63.34985352 30.18774414 C71.82793919 34.44924925 80.37306139 38.55751235 88.98632812 42.5390625 C89.86869141 42.95285156 90.75105469 43.36664063 91.66015625 43.79296875 C92.42980713 44.1489917 93.19945801 44.50501465 93.99243164 44.87182617 C96.04142049 46.02327667 97.43229083 47.26221946 99 49 C94.80078125 53.00390625 94.80078125 53.00390625 93 54 C89.2888525 53.52853462 86.34581467 52.35432253 83.02392578 50.67431641 C82.05746124 50.18935699 81.0909967 49.70439758 80.09524536 49.20474243 C79.05576752 48.67569305 78.01628967 48.14664368 76.9453125 47.6015625 C75.85274139 47.05196869 74.76017029 46.50237488 73.63449097 45.93612671 C70.12844227 44.17140691 66.6265255 42.39867534 63.125 40.625 C58.56672391 38.32229913 54.00660865 36.02327486 49.4453125 33.7265625 C48.32276566 33.16078995 47.20021881 32.5950174 46.0436554 32.01210022 C37.57940699 27.7594131 29.06158793 23.62946657 20.49551392 19.58596802 C13.52810508 16.2909775 6.71975578 12.77905651 0 9 C0 6.03 0 3.06 0 0 Z " fill="#FF399C" transform="translate(202,142)"/>
<path d="M0 0 C3.89311937 1.23342069 7.53448335 2.63612973 11.19726562 4.43920898 C12.18690308 4.92409286 13.17654053 5.40897675 14.19616699 5.90855408 C15.25549438 6.43244217 16.31482178 6.95633026 17.40625 7.49609375 C18.52197388 8.04427261 19.63769775 8.59245148 20.78723145 9.15724182 C23.75900249 10.61833154 26.7290778 12.08276502 29.69842529 13.54876709 C32.63726038 14.99852072 35.57855932 16.44325919 38.51953125 17.88867188 C44.24910294 20.70620937 49.9726447 23.53576886 55.69464111 26.36865234 C58.93450684 27.96767609 62.18018085 29.55432873 65.42724609 31.13867188 C67.40732851 32.11177174 69.38731423 33.08506842 71.3671875 34.05859375 C72.26328735 34.49215683 73.15938721 34.92571991 74.0826416 35.37242126 C79.82506365 38.21017906 84.25524876 41.21192607 88.76171875 45.80078125 C92.3150139 49.29206427 96.39273088 52.0646796 100.43359375 54.95703125 C102.77886337 56.82396582 104.35397799 58.51701765 106 61 C99.91783041 59.26619803 94.46526369 56.34926111 88.84765625 53.50390625 C87.75650009 52.95572739 86.66534393 52.40754852 85.54112244 51.84275818 C82.04632112 50.08647184 78.55422326 48.32489693 75.0625 46.5625 C60.11330722 39.02690165 45.1372803 31.57688704 30.01635742 24.39135742 C23.84888922 21.45897954 17.72818673 18.43904885 11.625 15.375 C10.59246094 14.86066406 9.55992187 14.34632812 8.49609375 13.81640625 C1.12698413 10.12698413 1.12698413 10.12698413 0 9 C-0.07179964 7.48071962 -0.08392007 5.95832518 -0.0625 4.4375 C-0.05347656 3.61121094 -0.04445312 2.78492187 -0.03515625 1.93359375 C-0.02355469 1.29550781 -0.01195312 0.65742187 0 0 Z " fill="#FF399C" transform="translate(202,105)"/>
<path d="M0 0 C5.46446665 1.61096967 10.34372452 4.05202724 15.40234375 6.62109375 C16.30881653 7.07708954 17.21528931 7.53308533 18.14923096 8.00289917 C20.08196416 8.97541716 22.01383667 9.94964722 23.94491577 10.92544556 C28.94337326 13.45100182 33.9479571 15.96433698 38.953125 18.4765625 C39.92714767 18.9656459 40.90117035 19.45472931 41.90470886 19.95863342 C48.96017498 23.49497094 56.04781811 26.94890522 63.1875 30.3125 C72.27891198 34.59738679 81.17053118 39.20008742 90 44 C85.375 48.875 85.375 48.875 82 50 C79.65313229 49.0833053 77.48921963 48.10499378 75.24609375 46.9765625 C74.56544357 46.64379807 73.8847934 46.31103363 73.18351746 45.96818542 C70.93002266 44.86330776 68.68387016 43.74428277 66.4375 42.625 C64.87001586 41.85297361 63.30213924 41.08174363 61.73388672 40.3112793 C56.81483724 37.88968995 51.90607963 35.44774167 47 33 C46.20672302 32.60423767 45.41344604 32.20847534 44.59613037 31.80072021 C37.87865758 28.44761071 31.16157739 25.09371628 24.45874023 21.71142578 C16.3769316 17.63983275 8.24673329 13.7302472 0 10 C0 6.7 0 3.4 0 0 Z " fill="#FF399C" transform="translate(202,154)"/>
<path d="M0 0 C12.81293861 6.03988414 25.58187797 12.16358221 38.3125 18.375 C39.15297882 18.78464996 39.99345764 19.19429993 40.85940552 19.61636353 C53.94739551 25.99632197 67.00345334 32.43534249 80 39 C80 42 80 42 77.875 44.3125 C75 46 75 46 72.15109253 45.26089478 C69.2702128 44.10812437 66.49056374 42.88363627 63.70751953 41.51318359 C62.69851593 41.01861664 61.68951233 40.52404968 60.64993286 40.01449585 C59.57178314 39.48119659 58.49363342 38.94789734 57.3828125 38.3984375 C56.25285858 37.84314362 55.12290466 37.28784973 53.95870972 36.71572876 C50.95505138 35.23868635 47.95307852 33.75832029 44.95184326 32.27636719 C41.95375622 30.79710657 38.95329062 29.32269663 35.953125 27.84765625 C23.94741303 21.94101286 11.95509265 16.00849431 0 10 C0 6.7 0 3.4 0 0 Z " fill="#FF389C" transform="translate(202,166)"/>
<path d="M0 0 C7.56382069 2.27732733 14.37386607 5.49135648 21.41015625 9.05859375 C22.57703476 9.64415543 23.74391327 10.2297171 24.94615173 10.83302307 C28.02814207 12.37969949 31.10646375 13.93353917 34.184021 15.48901367 C37.30084008 17.06276578 40.42105538 18.62975279 43.54101562 20.19726562 C48.12172838 22.49950306 52.70057336 24.80540786 57.27758789 27.11499023 C61.84664445 29.42027267 66.42074753 31.71504259 71 34 C70.67 34.99 70.34 35.98 70 37 C66.16088815 38.27970395 62.95810648 38.8125914 59 38 C56.27376468 36.47799132 53.79972587 34.78705686 51.296875 32.921875 C48.34992501 31.20398472 46.00229927 30.30026688 42.77734375 29.30859375 C34.88387115 26.80162783 27.60398147 23.14983167 20.19604492 19.48999023 C17.78216495 18.29751425 15.36329115 17.11568666 12.94335938 15.93554688 C11.4059577 15.18288843 9.86883734 14.42965504 8.33203125 13.67578125 C7.60925491 13.32163651 6.88647858 12.96749176 6.14179993 12.60261536 C1.11796746 10.11796746 1.11796746 10.11796746 0 9 C-0.14177857 5.99996555 -0.04228771 3.00242765 0 0 Z " fill="#FF399C" transform="translate(202,179)"/>
<path d="M0 0 C7.40773841 2.30878271 14.33938743 5.63092089 21.35131836 8.91967773 C22.99474034 9.68278241 24.64461515 10.43213843 26.30053711 11.16772461 C28.70274723 12.23656406 31.08007038 13.34898001 33.45703125 14.47265625 C34.19862991 14.79178482 34.94022858 15.11091339 35.70429993 15.43971252 C37.81347682 16.47131498 39.36304244 17.31205064 41 19 C41.90685211 22.02422571 42.08070438 24.8547569 42 28 C37.88975919 27.44906957 34.56872337 26.54667805 30.83984375 24.7421875 C29.41007202 24.05539917 29.41007202 24.05539917 27.95141602 23.35473633 C26.45952759 22.62226685 26.45952759 22.62226685 24.9375 21.875 C23.917771 21.38088623 22.89804199 20.88677246 21.84741211 20.37768555 C14.45789319 16.77477421 7.16594234 13.02998293 0 9 C0 6.03 0 3.06 0 0 Z " fill="#FF3A9C" transform="translate(202,265)"/>
<path d="M0 0 C5.85480277 2.27708917 11.46479633 5.03257201 17.125 7.75 C18.74148437 8.51957031 18.74148437 8.51957031 20.390625 9.3046875 C27.38471387 12.65847951 34.23049149 16.21340664 41 20 C41 22.97 41 25.94 41 29 C35.98972398 27.47693122 31.43990788 25.39017414 26.7578125 23.0859375 C25.98944061 22.71143463 25.22106873 22.33693176 24.42941284 21.95108032 C21.99288886 20.76253733 19.55892465 19.56885545 17.125 18.375 C15.46631262 17.56476263 13.80746013 16.75486319 12.1484375 15.9453125 C8.09703691 13.96744752 4.04792292 11.98497207 0 10 C0 6.7 0 3.4 0 0 Z " fill="#FF3C9D" transform="translate(202,240)"/>
<path d="M0 0 C26.15987233 -0.84386685 45.36355515 14.39273826 64 31 C63.01 31.495 63.01 31.495 62 32 C59.67388916 31.07745361 59.67388916 31.07745361 56.72753906 29.59082031 C55.62589417 29.0398468 54.52424927 28.48887329 53.38922119 27.92120361 C52.18127278 27.30700732 50.9734095 26.69264356 49.765625 26.078125 C48.52767407 25.4554181 47.28936722 24.83341832 46.05072021 24.21209717 C42.78121035 22.56969076 39.51661091 20.91774568 36.25292969 19.26379395 C32.95012344 17.59206028 29.64287182 15.92917339 26.3359375 14.265625 C20.49836563 11.32768139 14.66480807 8.38192005 8.83404541 5.43048096 C5.89312811 3.94605654 2.94740836 2.47148798 0 1 C0 0.67 0 0.34 0 0 Z " fill="#FF3C9D" transform="translate(208,104)"/>
<path d="M0 0 C13.78075045 6.44480823 27.41612946 13.15045171 41 20 C41 23.3 41 26.6 41 30 C27.21924955 23.55519177 13.58387054 16.84954829 0 10 C0 6.7 0 3.4 0 0 Z " fill="#FF389B" transform="translate(202,252)"/>
<path d="M0 0 C4.02035151 1.26291637 7.72541439 2.7434286 11.484375 4.64453125 C12.50273437 5.15693359 13.52109375 5.66933594 14.5703125 6.19726562 C15.61960938 6.73029297 16.66890625 7.26332031 17.75 7.8125 C19.30074219 8.59463867 19.30074219 8.59463867 20.8828125 9.39257812 C22.929795 10.4250926 24.97603561 11.45907936 27.02148438 12.49462891 C31.34046939 14.67748641 35.66947246 16.8401524 40 19 C40 21.97 40 24.94 40 28 C35.19719035 27.36897392 31.37021716 25.38597182 27.109375 23.21875 C25.99154633 22.65843079 25.99154633 22.65843079 24.85113525 22.08679199 C23.28313234 21.29943966 21.71656703 20.5092186 20.15136719 19.71630859 C17.74724771 18.49860595 15.33891585 17.28958949 12.9296875 16.08203125 C11.4059984 15.31560415 9.88255219 14.54869395 8.359375 13.78125 C7.63651306 13.41769409 6.91365112 13.05413818 6.16888428 12.67956543 C1.11720696 10.11720696 1.11720696 10.11720696 0 9 C-0.07179964 7.48071962 -0.08392007 5.95832518 -0.0625 4.4375 C-0.05347656 3.61121094 -0.04445312 2.78492188 -0.03515625 1.93359375 C-0.02355469 1.29550781 -0.01195312 0.65742188 0 0 Z " fill="#FF389C" transform="translate(202,228)"/>
<path d="M0 0 C4.4918003 2.10362593 8.9748409 4.22251099 13.4453125 6.37109375 C17.15960435 8.15033593 20.90016238 9.83694657 24.6796875 11.47265625 C26.49506984 12.29365601 28.31018203 13.11525344 30.125 13.9375 C30.99543945 14.29505371 31.86587891 14.65260742 32.76269531 15.02099609 C35.21963915 16.16365745 37.06184319 17.10138572 39 19 C40.01955195 22.37410806 40.16276052 25.49297952 40 29 C35.3780297 27.57117343 31.07621537 25.71275949 26.73828125 23.59375 C26.06580856 23.26838257 25.39333588 22.94301514 24.70048523 22.60778809 C23.28865032 21.92370704 21.87767633 21.23784662 20.4675293 20.55029297 C18.31058945 19.49906886 16.15065692 18.4542011 13.99023438 17.41015625 C12.61440259 16.74255986 11.23874537 16.07460357 9.86328125 15.40625 C8.89760979 14.93898499 8.89760979 14.93898499 7.91242981 14.46228027 C5.13743808 13.10627376 2.57556155 11.71704103 0 10 C-0.29296875 7.6171875 -0.29296875 7.6171875 -0.1875 4.875 C-0.16042969 3.96492187 -0.13335937 3.05484375 -0.10546875 2.1171875 C-0.07066406 1.41851562 -0.03585938 0.71984375 0 0 Z " fill="#FF3A9C" transform="translate(202,215)"/>
<path d="M0 0 C13.3085466 5.80583592 26.23364763 12.08248554 39 19 C39 21.97 39 24.94 39 28 C34.17966832 27.37126109 30.34541864 25.36525474 26.07421875 23.18359375 C25.32662796 22.80767593 24.57903717 22.43175812 23.80879211 22.04444885 C21.43214127 20.84775707 19.0598105 19.64276934 16.6875 18.4375 C15.07254396 17.62249512 13.45731248 16.80803578 11.84179688 15.99414062 C7.89131248 14.00239958 3.94468031 12.00320991 0 10 C0 6.7 0 3.4 0 0 Z " fill="#FF3B9D" transform="translate(202,203)"/>
<path d="M0 0 C4.75725808 1.45129679 9.12361752 3.42268675 13.55078125 5.66015625 C14.25019333 6.0100914 14.94960541 6.36002655 15.67021179 6.7205658 C17.13762101 7.45577284 18.6040642 8.19291086 20.06958008 8.93188477 C22.32077291 10.06667022 24.5751499 11.19492397 26.83007812 12.32226562 C28.25800269 13.03868355 29.68574374 13.75546738 31.11328125 14.47265625 C31.78925858 14.81120132 32.4652359 15.1497464 33.16169739 15.49855042 C37.88389969 17.88389969 37.88389969 17.88389969 39 19 C39.07179964 20.51928038 39.08392007 22.04167482 39.0625 23.5625 C39.05347656 24.38878906 39.04445312 25.21507812 39.03515625 26.06640625 C39.02355469 26.70449219 39.01195312 27.34257812 39 28 C34.24274192 26.54870321 29.87638248 24.57731325 25.44921875 22.33984375 C24.74980667 21.9899086 24.05039459 21.63997345 23.32978821 21.2794342 C21.86237899 20.54422716 20.3959358 19.80708914 18.93041992 19.06811523 C16.67922709 17.93332978 14.4248501 16.80507603 12.16992188 15.67773438 C10.74199731 14.96131645 9.31425626 14.24453262 7.88671875 13.52734375 C6.87275276 13.01952614 6.87275276 13.01952614 5.83830261 12.50144958 C1.11610031 10.11610031 1.11610031 10.11610031 0 9 C-0.07179964 7.48071962 -0.08392007 5.95832518 -0.0625 4.4375 C-0.05347656 3.61121094 -0.04445312 2.78492188 -0.03515625 1.93359375 C-0.02355469 1.29550781 -0.01195312 0.65742188 0 0 Z " fill="#FF389B" transform="translate(202,191)"/>
<path d="M0 0 C5.60028829 1.65517846 10.66470339 4.15850245 15.8828125 6.734375 C16.84206635 7.20431885 17.80132019 7.6742627 18.78964233 8.15844727 C21.90329208 9.68520077 25.01418286 11.21748437 28.125 12.75 C30.27137119 13.80394148 32.41785604 14.85765151 34.56445312 15.91113281 C46.99130925 22.01524303 59.39323649 28.16695563 71.76049805 34.39086914 C80.0564033 38.55714851 88.41235853 42.5882062 96.8125 46.54003906 C101.00285128 48.51950176 105.09000681 50.49401271 109 53 C108.01 53.99 108.01 53.99 107 55 C89.72535533 46.67712704 72.49002221 38.28721139 55.35830688 29.67352295 C45.93761716 24.93859315 36.46751365 20.33009736 26.93481445 15.82373047 C17.81303352 11.48620509 8.89390231 6.7842345 0 2 C0 1.34 0 0.68 0 0 Z " fill="#FFE9F4" transform="translate(202,127)"/>
<path d="M0 0 C10.66241287 4.97151058 21.2398417 10.08867781 31.75 15.375 C39.75253924 19.39945195 47.77794052 23.35681516 55.875 27.1875 C67.99167289 32.92126312 79.95923068 38.95081779 91.92919922 44.9831543 C92.68996765 45.36565338 93.45073608 45.74815247 94.23455811 46.14224243 C95.66795075 46.86301482 97.10050039 47.58546708 98.53204346 48.30990601 C101.29716221 49.69943779 103.97435557 50.99132634 106.90966797 51.98413086 C109 53 109 53 109.8125 55.125 C109.874375 55.74375 109.93625 56.3625 110 57 C98.37978025 51.59058736 86.88039447 45.96730965 75.42889404 40.20932007 C67.61698066 36.28355934 59.77804738 32.42739247 51.875 28.6875 C37.61420931 21.93409028 23.5348535 14.81238054 9.43725586 7.7265625 C6.29333852 6.1473464 3.14736719 4.5723271 0 3 C0 2.01 0 1.02 0 0 Z " fill="#FFEEF6" transform="translate(202,114)"/>
<path d="M0 0 C6.08216959 1.73380197 11.53473631 4.65073889 17.15234375 7.49609375 C18.24349991 8.04427261 19.33465607 8.59245148 20.45887756 9.15724182 C23.95367888 10.91352816 27.44577674 12.67510307 30.9375 14.4375 C46.76802185 22.41735925 62.63022109 30.30127588 78.65316772 37.88851929 C81.71830097 39.34019375 84.77907382 40.80086916 87.83984375 42.26171875 C89.53896182 43.07052403 91.23817257 43.87913468 92.9375 44.6875 C93.83533203 45.11482422 94.73316406 45.54214844 95.65820312 45.98242188 C97.77204365 46.98847432 99.88597174 47.99434213 102 49 C100.2746582 50.11401367 100.2746582 50.11401367 98 51 C95.89135742 50.3918457 95.89135742 50.3918457 93.60546875 49.17578125 C92.7453418 48.73024902 91.88521484 48.2847168 90.99902344 47.82568359 C90.0712207 47.32633301 89.14341797 46.82698242 88.1875 46.3125 C86.17682632 45.26751794 84.16507537 44.22460652 82.15234375 43.18359375 C81.12351074 42.64718262 80.09467773 42.11077148 79.03466797 41.55810547 C74.48914884 39.22427578 69.87296848 37.05014726 65.25 34.875 C54.59670075 29.82781636 44.06362869 24.55101599 33.5302124 19.25997925 C22.42496288 13.68392504 11.27714215 8.22200118 0 3 C0 2.01 0 1.02 0 0 Z " fill="#FFEBF5" transform="translate(202,139)"/>
<path d="M0 0 C13.74471933 6.46786966 27.42007259 13.06930605 41.0625 19.75 C42.03958923 20.22812134 43.01667847 20.70624268 44.02337646 21.19885254 C55.90753191 27.01505576 67.78504166 32.84425881 79.625 38.75 C80.665354 39.26788086 81.70570801 39.78576172 82.77758789 40.31933594 C84.17545532 41.01978027 84.17545532 41.01978027 85.6015625 41.734375 C86.38869629 42.12850586 87.17583008 42.52263672 87.98681641 42.92871094 C90 44 90 44 93 46 C91.46606445 46.71582031 91.46606445 46.71582031 89 47 C86.39318055 45.95209646 84.02000019 44.84634701 81.54296875 43.546875 C80.81218613 43.17587173 80.0814035 42.80486847 79.32847595 42.42262268 C76.94261728 41.20893339 74.56533313 39.9793266 72.1875 38.75 C69.71069232 37.48638567 67.23168279 36.22716756 64.75250244 34.96821594 C63.10871539 34.13319855 61.46560629 33.29684523 59.82318115 32.45915222 C53.63786443 29.3073907 47.4062869 26.26870677 41.125 23.3125 C27.2995813 16.77959565 13.65787389 9.87430035 0 3 C0 2.01 0 1.02 0 0 Z " fill="#FFEEF6" transform="translate(202,151)"/>
<path d="M0 0 C4.05297955 1.28043938 7.8387731 2.77532435 11.6640625 4.625 C12.76878906 5.15802734 13.87351563 5.69105469 15.01171875 6.24023438 C16.21624206 6.82662529 17.42066624 7.41321987 18.625 8 C19.88929147 8.6126951 21.15361517 9.22532369 22.41796875 9.83789062 C34.5081296 15.70964546 46.52468338 21.73010608 58.52587891 27.78125 C66.94714263 32.02058128 75.40491564 36.12100106 84 40 C83.505 40.99 83.505 40.99 83 42 C79.5289966 41.41949056 76.71029413 40.53809645 73.57470703 38.94970703 C72.728367 38.52480988 71.88202698 38.09991272 71.01004028 37.66213989 C70.10180511 37.19871185 69.19356995 36.73528381 68.2578125 36.2578125 C67.29841766 35.77480682 66.33902283 35.29180115 65.35055542 34.79415894 C62.27247468 33.24343312 59.19853863 31.68470617 56.125 30.125 C52.12925945 28.10348054 48.13161091 26.08577587 44.1328125 24.0703125 C43.13856262 23.5684845 42.14431274 23.06665649 41.11993408 22.54962158 C33.05014077 18.49152417 24.91806261 14.5731758 16.74197388 10.73391724 C11.0297212 8.03621343 5.48059844 5.14234377 0 2 C0 1.34 0 0.68 0 0 Z " fill="#FFE9F4" transform="translate(202,164)"/>
<path d="M0 0 C4.15116435 1.29757537 7.95590318 2.85943494 11.8359375 4.8203125 C13.43115234 5.62275391 13.43115234 5.62275391 15.05859375 6.44140625 C16.70021484 7.27478516 16.70021484 7.27478516 18.375 8.125 C19.49261719 8.68832031 20.61023438 9.25164062 21.76171875 9.83203125 C24.5096609 11.21774567 27.2556598 12.60716947 30 14 C30 14.33 30 14.66 30 15 C18.7334131 15.52538488 10.05374325 15.82825696 0 10 C0 6.7 0 3.4 0 0 Z " fill="#FF3C9D" transform="translate(202,277)"/>
<path d="M0 0 C5.1522679 1.54236619 9.75388428 3.75507742 14.52734375 6.18359375 C15.75435249 6.80127121 15.75435249 6.80127121 17.00614929 7.431427 C18.75088517 8.30998041 20.4947651 9.19023544 22.237854 10.072052 C26.75434504 12.35643805 31.27738255 14.62776741 35.80078125 16.8984375 C37.13058014 17.56629021 37.13058014 17.56629021 38.48724365 18.24763489 C47.92630908 22.979973 57.44327532 27.53931145 66.99316406 32.04345703 C69.6816876 33.32492117 72.34309279 34.65434958 75 36 C73.68 36.99 72.36 37.98 71 39 C70.59918213 38.55285645 70.19836426 38.10571289 69.78540039 37.64501953 C67.77292949 35.79078338 65.91381864 34.83217465 63.43359375 33.6796875 C62.01723633 33.01259766 62.01723633 33.01259766 60.57226562 32.33203125 C59.53779297 31.85121094 58.50332031 31.37039062 57.4375 30.875 C55.18492464 29.81259132 52.93369806 28.74731972 50.68359375 27.6796875 C50.08203461 27.39430115 49.48047546 27.10891479 48.86068726 26.81488037 C40.10161251 22.64178512 31.44825813 18.25198878 22.78561401 13.88323975 C15.2600237 10.08801536 7.75066055 6.32171167 0 3 C0 2.01 0 1.02 0 0 Z " fill="#FFE9F4" transform="translate(202,176)"/>
<path d="M0 0 C2.97 0 5.94 0 9 0 C8.34 0.66 7.68 1.32 7 2 C7.85319824 2.40387939 7.85319824 2.40387939 8.72363281 2.81591797 C19.71393068 8.02970835 30.66568004 13.30839748 41.53515625 18.76953125 C42.34437531 19.1759082 43.15359436 19.58228516 43.98733521 20.00097656 C48.0322027 22.03391037 52.07390511 24.07290188 56.11230469 26.11865234 C57.61258579 26.87476263 59.11290935 27.63078865 60.61328125 28.38671875 C61.30084 28.73724808 61.98839874 29.0877774 62.6967926 29.44892883 C65.78456063 31.00085903 68.65923257 32.1669735 72 33 C72.33 33.66 72.66 34.32 73 35 C72.01 35.99 72.01 35.99 71 37 C69.84814209 36.42145264 68.69628418 35.84290527 67.50952148 35.24682617 C37.86368913 20.34516545 37.86368913 20.34516545 7.97460938 5.94042969 C5.29702559 4.66520061 2.64570265 3.33992037 0 2 C0 1.34 0 0.68 0 0 Z " fill="#FFEFF7" transform="translate(202,103)"/>
<path d="M0 0 C4.95089806 1.49415515 9.36968717 3.56850534 13.953125 5.9140625 C14.6945575 6.28856537 15.43598999 6.66306824 16.19989014 7.04891968 C18.55190898 8.23707943 20.9012496 9.43039356 23.25 10.625 C26.35709644 12.20507221 29.46676335 13.77990898 32.578125 15.3515625 C33.2926886 15.71714264 34.0072522 16.08272278 34.74346924 16.4593811 C38.19813872 18.35023884 38.19813872 18.35023884 42 19 C42 20.98 42 22.96 42 25 C41.505 23.515 41.505 23.515 41 22 C39.02290121 21.26820438 37.01581393 20.61720226 35 20 C32.21129734 18.78048826 29.48841281 17.42976944 26.7578125 16.0859375 C25.98944061 15.71143463 25.22106873 15.33693176 24.42941284 14.95108032 C21.99288886 13.76253733 19.55892465 12.56885545 17.125 11.375 C15.46631262 10.56476263 13.80746013 9.75486319 12.1484375 8.9453125 C8.09703691 6.96744752 4.04792292 4.98497207 0 3 C0 2.01 0 1.02 0 0 Z " fill="#FFEDF6" transform="translate(202,262)"/>
<path d="M0 0 C13.34297975 6.31313556 26.67516892 12.64865055 40 19 C40.33 17.68 40.66 16.36 41 15 C41 17.64 41 20.28 41 23 C39.84886719 22.45472656 38.69773438 21.90945313 37.51171875 21.34765625 C36.75117188 20.98744385 35.990625 20.62723145 35.20703125 20.25610352 C33.51287528 19.45351354 31.81886728 18.65061118 30.125 17.84741211 C25.62448496 15.7139054 21.12162531 13.58566855 16.61328125 11.46875 C15.75581299 11.06519287 14.89834473 10.66163574 14.01489258 10.24584961 C12.3632854 9.46870758 10.71080419 8.69341982 9.05737305 7.92016602 C8.30625244 7.56623779 7.55513184 7.21230957 6.78125 6.84765625 C6.12189453 6.53836182 5.46253906 6.22906738 4.78320312 5.91040039 C3 5 3 5 0 3 C0 2.01 0 1.02 0 0 Z " fill="#FFEBF5" transform="translate(202,237)"/>
<path d="M0 0 C1.15113281 0.54527344 2.30226562 1.09054688 3.48828125 1.65234375 C4.62898071 2.19266235 4.62898071 2.19266235 5.79272461 2.74389648 C7.48757528 3.54673777 9.18239904 4.34963589 10.87719727 5.15258789 C15.3680288 7.28012917 19.85929968 9.40673233 24.3515625 11.53125 C25.20451904 11.93480713 26.05747559 12.33836426 26.9362793 12.75415039 C28.57559983 13.52972742 30.21507981 14.30496752 31.85473633 15.07983398 C32.60263428 15.43376221 33.35053223 15.78769043 34.12109375 16.15234375 C34.7752124 16.46163818 35.42933105 16.77093262 36.10327148 17.08959961 C38.07993815 18.03836908 40.04149553 19.01435454 42 20 C41.34 20 40.68 20 40 20 C39.67 21.32 39.34 22.64 39 24 C38.58018356 23.54610397 38.16036713 23.09220795 37.72782898 22.6245575 C35.98963291 20.99025255 34.48371465 20.06036409 32.35473633 19.00708008 C31.63421585 18.64693314 30.91369537 18.28678619 30.17134094 17.91572571 C29.39936874 17.53748154 28.62739655 17.15923737 27.83203125 16.76953125 C27.03721848 16.37424728 26.2424057 15.97896332 25.42350769 15.57170105 C22.88927004 14.31296508 20.35098366 13.06264736 17.8125 11.8125 C16.0915232 10.95953632 14.37081671 10.10602705 12.65039062 9.25195312 C8.43670178 7.16162947 4.21936289 5.07884509 0 3 C0 2.01 0 1.02 0 0 Z " fill="#FFEDF6" transform="translate(202,188)"/>
<path d="M0 0 C4.32886058 1.6505577 8.47657376 3.63048316 12.63671875 5.66015625 C13.35737015 6.0100914 14.07802155 6.36002655 14.82051086 6.7205658 C17.11029664 7.83292834 19.39890434 8.94769128 21.6875 10.0625 C23.23755449 10.81591101 24.78768393 11.56916785 26.33789062 12.32226562 C37.28786611 17.64393306 37.28786611 17.64393306 40 19 C39.505 20.485 39.505 20.485 39 22 C34.40992376 19.77676537 29.82008798 17.55303534 25.23046875 15.32885742 C23.67096353 14.57318921 22.11139412 13.81765348 20.55175781 13.06225586 C18.30256291 11.97284696 16.05360372 10.8829528 13.8046875 9.79296875 C13.1138205 9.45847214 12.42295349 9.12397552 11.71115112 8.77934265 C7.79356267 6.87994657 3.88998108 4.95557552 0 3 C0 2.01 0 1.02 0 0 Z " fill="#FFE2F0" transform="translate(202,225)"/>
<path d="M0 0 C5.01027602 1.52306878 9.56009212 3.60982586 14.2421875 5.9140625 C15.01055939 6.28856537 15.77893127 6.66306824 16.57058716 7.04891968 C19.00711114 8.23746267 21.44107535 9.43114455 23.875 10.625 C25.53368738 11.43523737 27.19253987 12.24513681 28.8515625 13.0546875 C32.90296309 15.03255248 36.95207708 17.01502793 41 19 C41 19.99 41 20.98 41 22 C36.0755875 20.49955175 31.60669706 18.47153255 27.01171875 16.19140625 C25.8960125 15.64032448 25.8960125 15.64032448 24.75776672 15.07810974 C23.19607828 14.30448449 21.63548084 13.52865333 20.07592773 12.75073242 C17.68244985 11.55998757 15.28190412 10.38438096 12.88085938 9.20898438 C11.36152254 8.45404328 9.84262619 7.69821491 8.32421875 6.94140625 C7.60449387 6.59130997 6.88476898 6.24121368 6.14323425 5.88050842 C1.11431228 3.34293683 1.11431228 3.34293683 0 0 Z " fill="#FFEEF7" transform="translate(202,250)"/>
<path d="M0 0 C13.10188882 6.13595245 26.08669765 12.47657359 39 19 C38.505 20.485 38.505 20.485 38 22 C32.74015229 19.52790577 27.48959802 17.0374026 22.24682617 14.52929688 C20.46150827 13.6784496 18.67374452 12.83271501 16.88354492 11.9921875 C14.31291415 10.78415486 11.75159704 9.55809843 9.19140625 8.328125 C8.3872377 7.95504211 7.58306915 7.58195923 6.75453186 7.1975708 C5.64349342 6.65746368 5.64349342 6.65746368 4.51000977 6.10644531 C3.85492935 5.79555969 3.19984894 5.48467407 2.5249176 5.16436768 C0.5400408 3.64879307 0.36303389 2.41701496 0 0 Z " fill="#FFDFEF" transform="translate(202,200)"/>
<path d="M0 0 C4.57463187 1.40150957 8.76314374 3.26158232 13.0078125 5.44140625 C13.65571747 5.76914536 14.30362244 6.09688446 14.97116089 6.43455505 C17.02443686 7.47332338 19.07501886 8.51724603 21.125 9.5625 C23.83361411 10.94344293 26.54485287 12.31902383 29.2578125 13.69140625 C29.87455841 14.00807755 30.49130432 14.32474884 31.1267395 14.65101624 C34.04380248 16.12613372 36.77341143 17.40069086 40 18 C40 20.64 40 23.28 40 26 C39.67 26 39.34 26 39 26 C39 24.35 39 22.7 39 21 C37.74860229 20.61606079 37.74860229 20.61606079 36.47192383 20.22436523 C32.65379997 18.87791343 29.06945524 17.20569609 25.44921875 15.41015625 C24.74980667 15.06496445 24.05039459 14.71977264 23.32978821 14.36412048 C21.86225852 13.63757098 20.39581672 12.90882035 18.93041992 12.17797852 C16.68178756 11.05965901 14.42611142 9.95649262 12.16992188 8.85351562 C10.74173108 8.14414735 9.31398049 7.43389195 7.88671875 6.72265625 C6.87275276 6.23032249 6.87275276 6.23032249 5.83830261 5.7280426 C1.11431309 3.34293927 1.11431309 3.34293927 0 0 Z " fill="#FFEEF6" transform="translate(202,213)"/>
<path d="M0 0 C2.97 0 5.94 0 9 0 C8.34 0.66 7.68 1.32 7 2 C14.59 5.63 22.18 9.26 30 13 C29.67 13.99 29.34 14.98 29 16 C25.29124248 14.23005408 21.5830702 12.45888534 17.875 10.6875 C16.82828125 10.18798828 15.7815625 9.68847656 14.703125 9.17382812 C9.78147333 6.82202622 4.86538471 4.46636284 0 2 C0 1.34 0 0.68 0 0 Z " fill="#FFE0EF" transform="translate(202,103)"/>
<path d="M0 0 C3.83097267 0.60679709 6.84967736 1.74808147 10.30078125 3.50390625 C11.27724609 3.99697266 12.25371094 4.49003906 13.25976562 4.99804688 C14.26716797 5.51431641 15.27457031 6.03058594 16.3125 6.5625 C17.33923828 7.08263672 18.36597656 7.60277344 19.42382812 8.13867188 C21.9520146 9.42040362 24.477224 10.70766061 27 12 C27 12.99 27 13.98 27 15 C7.46808511 6.42553191 7.46808511 6.42553191 -1 2 C-0.67 1.34 -0.34 0.68 0 0 Z " fill="#FFDFEF" transform="translate(283,167)"/>
<path d="M0 0 C5.2063297 1.58019592 9.98373311 3.77884995 14.875 6.125 C16.050625 6.68380859 16.050625 6.68380859 17.25 7.25390625 C19.16813499 8.16618997 21.08427329 9.08266984 23 10 C23 10.33 23 10.66 23 11 C16.4 11 9.8 11 3 11 C3 10.67 3 10.34 3 10 C6.3 9.67 9.6 9.34 13 9 C8.71 6.69 4.42 4.38 0 2 C0 1.34 0 0.68 0 0 Z " fill="#FFDAEC" transform="translate(217,282)"/>
<path d="M0 0 C4.73789165 1.44323469 8.98858151 3.37226733 13.375 5.625 C14.01566406 5.94984375 14.65632812 6.2746875 15.31640625 6.609375 C16.87947501 7.40257407 18.44000622 8.20077031 20 9 C19.67 9.99 19.34 10.98 19 12 C12.73 9.03 6.46 6.06 0 3 C0 2.01 0 1.02 0 0 Z " fill="#FFDDEE" transform="translate(202,262)"/>
<path d="M0 0 C4.55315948 0.61811534 8.28459767 2.46765893 12.3125 4.5625 C13.28026367 5.0565332 13.28026367 5.0565332 14.26757812 5.56054688 C15.84785228 6.36824255 17.42432105 7.18337613 19 8 C18.67 8.99 18.34 9.98 18 11 C11.73 8.03 5.46 5.06 -1 2 C-0.67 1.34 -0.34 0.68 0 0 Z " fill="#FFDFEF" transform="translate(235,168)"/>
<path d="M0 0 C3.75409842 0.59770082 6.69658253 1.6843096 10.0625 3.4375 C10.89910156 3.86933594 11.73570312 4.30117187 12.59765625 4.74609375 C13.39042969 5.15988281 14.18320313 5.57367188 15 6 C16.33197833 6.66936982 17.66482167 7.33703616 19 8 C18.34 8 17.68 8 17 8 C16.67 9.32 16.34 10.64 16 12 C15.65324219 11.58105469 15.30648437 11.16210938 14.94921875 10.73046875 C12.22101689 8.30843784 9.07360437 6.8792693 5.8125 5.3125 C5.15830078 4.99216797 4.50410156 4.67183594 3.83007812 4.34179688 C2.22272093 3.55571708 0.61171142 2.77711317 -1 2 C-0.67 1.34 -0.34 0.68 0 0 Z " fill="#FFDAEC" transform="translate(225,200)"/>
<path d="M0 0 C5.09882455 1.5280389 9.65665659 3.71036856 14.375 6.125 C15.11105469 6.49753906 15.84710938 6.87007812 16.60546875 7.25390625 C18.40550358 8.1656122 20.20301402 9.08229932 22 10 C22 10.66 22 11.32 22 12 C16.80771145 11.42770367 12.6896297 8.9017839 8.1875 6.4375 C7.39923828 6.01275391 6.61097656 5.58800781 5.79882812 5.15039062 C3.8626622 4.10603446 1.92994633 3.0557923 0 2 C0 1.34 0 0.68 0 0 Z " fill="#FFEEF6" transform="translate(202,127)"/>
<path d="M0 0 C4.23322844 0.62045463 7.52290295 2.10523559 11.3125 4.0625 C12.38113281 4.61035156 13.44976562 5.15820312 14.55078125 5.72265625 C15.35902344 6.14417969 16.16726562 6.56570313 17 7 C17 7.99 17 8.98 17 10 C12.64029169 8.65150163 8.68658562 6.95092154 4.625 4.875 C3.56539062 4.33617187 2.50578125 3.79734375 1.4140625 3.2421875 C0.61742187 2.83226562 -0.17921875 2.42234375 -1 2 C-0.67 1.34 -0.34 0.68 0 0 Z " fill="#FFDEEF" transform="translate(226,262)"/>
<path d="M0 0 C4.23322844 0.62045463 7.52290295 2.10523559 11.3125 4.0625 C12.38113281 4.61035156 13.44976562 5.15820312 14.55078125 5.72265625 C15.35902344 6.14417969 16.16726563 6.56570312 17 7 C16.67 7.99 16.34 8.98 16 10 C10.39 7.36 4.78 4.72 -1 2 C-0.67 1.34 -0.34 0.68 0 0 Z " fill="#FFDFEF" transform="translate(260,168)"/>
<path d="M0 0 C4.23322844 0.62045463 7.52290295 2.10523559 11.3125 4.0625 C12.38113281 4.61035156 13.44976562 5.15820312 14.55078125 5.72265625 C15.35902344 6.14417969 16.16726563 6.56570312 17 7 C16.67 7.99 16.34 8.98 16 10 C10.39 7.36 4.78 4.72 -1 2 C-0.67 1.34 -0.34 0.68 0 0 Z " fill="#FFDFEF" transform="translate(247,137)"/>
<path d="M0 0 C4.35970831 1.34849837 8.31341438 3.04907846 12.375 5.125 C13.43460938 5.66382813 14.49421875 6.20265625 15.5859375 6.7578125 C16.38257813 7.16773438 17.17921875 7.57765625 18 8 C17.67 8.99 17.34 9.98 17 11 C11.39 8.03 5.78 5.06 0 2 C0 1.34 0 0.68 0 0 Z " fill="#FFEEF6" transform="translate(223,211)"/>
<path d="M0 0 C4.95 2.31 9.9 4.62 15 7 C14.67 7.99 14.34 8.98 14 10 C9.38 7.69 4.76 5.38 0 3 C0 2.01 0 1.02 0 0 Z " fill="#FFECF6" transform="translate(202,274)"/>
<path d="M0 0 C4.85963179 0.60745397 8.7405518 2.72758967 13 5 C12.67 5.66 12.34 6.32 12 7 C7.14036821 6.39254603 3.2594482 4.27241033 -1 2 C-0.67 1.34 -0.34 0.68 0 0 Z " fill="#FFDFEF" transform="translate(273,199)"/>
<path d="M0 0 C3.63 1.65 7.26 3.3 11 5 C10.67 5.99 10.34 6.98 10 8 C6.7 6.35 3.4 4.7 0 3 C0 2.01 0 1.02 0 0 Z " fill="#FFE2F0" transform="translate(202,237)"/>
<path d="M0 0 C3.3 0.99 6.6 1.98 10 3 C10 5.64 10 8.28 10 11 C9.67 11 9.34 11 9 11 C9 9.35 9 7.7 9 6 C7.6078125 5.566875 7.6078125 5.566875 6.1875 5.125 C3 4 3 4 0 2 C0 1.34 0 0.68 0 0 Z " fill="#FFE1F0" transform="translate(232,228)"/>
<path d="M0 0 C1.46109063 0.25554054 2.91888096 0.53000372 4.375 0.8125 C5.59316406 1.03873047 5.59316406 1.03873047 6.8359375 1.26953125 C9 2 9 2 11 5 C10.34 5.66 9.68 6.32 9 7 C6.03 5.35 3.06 3.7 0 2 C0 1.34 0 0.68 0 0 Z " fill="#FFE2F1" transform="translate(264,133)"/>
<path d="M0 0 C1.98 0.66 3.96 1.32 6 2 C6 2.99 6 3.98 6 5 C4.02 5 2.04 5 0 5 C0 3.35 0 1.7 0 0 Z " fill="#FFB4D9" transform="translate(202,287)"/>
<path d="M0 0 C5.75 1.875 5.75 1.875 8 3 C8 3.99 8 4.98 8 6 C2.25 4.125 2.25 4.125 0 3 C0 2.01 0 1.02 0 0 Z " fill="#FFDCEE" transform="translate(202,176)"/>
<path d="M0 0 C3.48670834 1.1094072 6.77484237 2.26337666 10 4 C10 4.66 10 5.32 10 6 C6.05879291 5.43697042 3.2491277 4.3208055 0 2 C0 1.34 0 0.68 0 0 Z " fill="#FFECF6" transform="translate(202,164)"/>
<path d="M0 0 C3.77545388 1.09068668 6.47043472 1.9083091 9 5 C8.01 5.495 8.01 5.495 7 6 C5.0546875 5.22265625 5.0546875 5.22265625 2.875 4.0625 C2.15054687 3.68222656 1.42609375 3.30195313 0.6796875 2.91015625 C0.12539063 2.60980469 -0.42890625 2.30945313 -1 2 C-0.67 1.34 -0.34 0.68 0 0 Z " fill="#FFECF5" transform="translate(302,176)"/>
<path d="M0 0 C5.75 1.875 5.75 1.875 8 3 C7.67 3.99 7.34 4.98 7 6 C3.535 4.02 3.535 4.02 0 2 C0 1.34 0 0.68 0 0 Z " fill="#FFECF5" transform="translate(234,241)"/>
<path d="M0 0 C3.465 1.485 3.465 1.485 7 3 C6.67 3.99 6.34 4.98 6 6 C4.02 5.01 2.04 4.02 0 3 C0 2.01 0 1.02 0 0 Z " fill="#FFE3F1" transform="translate(202,114)"/>
</svg>
